{"accessors" : [{"bufferView" : 0, "byteOffset" : 0, "componentType" : 5123, "count" : 36, "type" : "SCALAR", "max" : [25], "min" : [0]}, {"bufferView" : 1, "byteOffset" : 0, "componentType" : 5126, "count" : 26, "type" : "VEC3", "max" : [148.51400756835938, 80.68710327148438, 171.22000122070312], "min" : [124.5719985961914, 57.333499908447266, 161.11399841308594], "name" : "POSITION"}, {"bufferView" : 1, "byteOffset" : 12, "componentType" : 5126, "count" : 26, "type" : "VEC3", "max" : [0.6735725402832031, 0.6621875166893005, 0.32835423946380615], "min" : [-0.6735725402832031, -0.6621875166893005, -0.32835423946380615], "name" : "NORMAL"}, {"bufferView" : 1, "byteOffset" : 24, "componentType" : 5126, "count" : 26, "type" : "VEC2", "max" : [0.41816699504852295, 4.697480201721191], "min" : [-0.3658199906349182, 3.0536599159240723], "name" : "TEXCOORD_0"}, {"bufferView" : 0, "byteOffset" : 72, "componentType" : 5123, "count" : 12225, "type" : "SCALAR", "max" : [10105], "min" : [0]}, {"bufferView" : 2, "byteOffset" : 0, "componentType" : 5126, "count" : 10106, "type" : "VEC3", "max" : [164.44000244140625, 167.4770050048828, 227.22300720214844], "min" : [2.8301498889923096, 5.301179885864258, 149.71400451660156], "name" : "POSITION"}, {"bufferView" : 2, "byteOffset" : 12, "componentType" : 5126, "count" : 10106, "type" : "VEC3", "max" : [0.9989336729049683, 0.9871547222137451, 0.9997854232788086], "min" : [-0.9985672831535339, -0.9982233047485352, -0.5967622995376587], "name" : "NORMAL"}, {"bufferView" : 2, "byteOffset" : 24, "componentType" : 5126, "count" : 10106, "type" : "VEC2", "max" : [-31.94499969482422, 2.0218000411987305], "min" : [-32.997501373291016, 1.0021899938583374], "name" : "TEXCOORD_0"}, {"bufferView" : 0, "byteOffset" : 24524, "componentType" : 5123, "count" : 12225, "type" : "SCALAR", "max" : [10105], "min" : [0]}, {"bufferView" : 3, "byteOffset" : 0, "componentType" : 5126, "count" : 10106, "type" : "VEC3", "max" : [188.2760009765625, 173.8820037841797, 230.5500030517578], "min" : [0, 23.74220085144043, 153.01400756835938], "name" : "POSITION"}, {"bufferView" : 3, "byteOffset" : 12, "componentType" : 5126, "count" : 10106, "type" : "VEC3", "max" : [0.9975776672363281, 0.9958076477050781, 0.9998891949653625], "min" : [-0.9947787523269653, -0.9984607696533203, -0.7520080208778381], "name" : "NORMAL"}, {"bufferView" : 3, "byteOffset" : 24, "componentType" : 5126, "count" : 10106, "type" : "VEC2", "max" : [-31.94499969482422, 2.0218000411987305], "min" : [-32.997501373291016, 1.0021899938583374], "name" : "TEXCOORD_0"}, {"bufferView" : 0, "byteOffset" : 48976, "componentType" : 5123, "count" : 12225, "type" : "SCALAR", "max" : [10105], "min" : [0]}, {"bufferView" : 4, "byteOffset" : 0, "componentType" : 5126, "count" : 10106, "type" : "VEC3", "max" : [162.9429931640625, 230.07699584960938, 217.28399658203125], "min" : [28.984699249267578, 0, 142.6219940185547], "name" : "POSITION"}, {"bufferView" : 4, "byteOffset" : 12, "componentType" : 5126, "count" : 10106, "type" : "VEC3", "max" : [0.9923036098480225, 0.9958076477050781, 0.9998647570610046], "min" : [-0.9980101585388184, -0.9989246726036072, -0.7123940587043762], "name" : "NORMAL"}, {"bufferView" : 4, "byteOffset" : 24, "componentType" : 5126, "count" : 10106, "type" : "VEC2", "max" : [-31.94499969482422, 2.0218000411987305], "min" : [-32.997501373291016, 1.0021899938583374], "name" : "TEXCOORD_0"}, {"bufferView" : 0, "byteOffset" : 73428, "componentType" : 5123, "count" : 12225, "type" : "SCALAR", "max" : [10105], "min" : [0]}, {"bufferView" : 5, "byteOffset" : 0, "componentType" : 5126, "count" : 10106, "type" : "VEC3", "max" : [211.1060028076172, 228.43600463867188, 214.72300720214844], "min" : [23.536500930786133, 42.5817985534668, 134.91200256347656], "name" : "POSITION"}, {"bufferView" : 5, "byteOffset" : 12, "componentType" : 5126, "count" : 10106, "type" : "VEC3", "max" : [0.9967392683029175, 0.9949336647987366, 0.9998772740364075], "min" : [-0.9985672831535339, -0.9967485070228577, -0.5704224705696106], "name" : "NORMAL"}, {"bufferView" : 5, "byteOffset" : 24, "componentType" : 5126, "count" : 10106, "type" : "VEC2", "max" : [-31.94499969482422, 2.0218000411987305], "min" : [-32.997501373291016, 1.0021899938583374], "name" : "TEXCOORD_0"}, {"bufferView" : 0, "byteOffset" : 97880, "componentType" : 5123, "count" : 12225, "type" : "SCALAR", "max" : [10485], "min" : [0]}, {"bufferView" : 6, "byteOffset" : 0, "componentType" : 5126, "count" : 10486, "type" : "VEC3", "max" : [211.3470001220703, 227.16200256347656, 227.3470001220703], "min" : [24.43090057373047, 31.2362003326416, 130.63999938964844], "name" : "POSITION"}, {"bufferView" : 6, "byteOffset" : 12, "componentType" : 5126, "count" : 10486, "type" : "VEC3", "max" : [0.9992967844009399, 0.9871547222137451, 0.9999891519546509], "min" : [-0.9742532968521118, -0.9997379183769226, -0.34604546427726746], "name" : "NORMAL"}, {"bufferView" : 6, "byteOffset" : 24, "componentType" : 5126, "count" : 10486, "type" : "VEC2", "max" : [-31.94499969482422, 2.0218000411987305], "min" : [-32.997501373291016, 1.0021899938583374], "name" : "TEXCOORD_0"}, {"bufferView" : 0, "byteOffset" : 122332, "componentType" : 5123, "count" : 9750, "type" : "SCALAR", "max" : [8579], "min" : [0]}, {"bufferView" : 7, "byteOffset" : 0, "componentType" : 5126, "count" : 8580, "type" : "VEC3", "max" : [195.50999450683594, 228.27699279785156, 219.87100219726562], "min" : [2.4378199577331543, 9.603119850158691, 133.28700256347656], "name" : "POSITION"}, {"bufferView" : 7, "byteOffset" : 12, "componentType" : 5126, "count" : 8580, "type" : "VEC3", "max" : [0.9637755751609802, 0.6406720280647278, 0.9999840259552002], "min" : [-0.8965073823928833, -0.9999967813491821, -0.30055832862854004], "name" : "NORMAL"}, {"bufferView" : 7, "byteOffset" : 24, "componentType" : 5126, "count" : 8580, "type" : "VEC2", "max" : [-31.94499969482422, 2.0218000411987305], "min" : [-32.997501373291016, 1.0021899938583374], "name" : "TEXCOORD_0"}, {"bufferView" : 0, "byteOffset" : 141832, "componentType" : 5123, "count" : 8616, "type" : "SCALAR", "max" : [8371], "min" : [0]}, {"bufferView" : 8, "byteOffset" : 0, "componentType" : 5126, "count" : 8372, "type" : "VEC3", "max" : [195.03500366210938, 209.4239959716797, 211.5449981689453], "min" : [17.862899780273438, 19.556100845336914, 0], "name" : "POSITION"}, {"bufferView" : 8, "byteOffset" : 12, "componentType" : 5126, "count" : 8372, "type" : "VEC3", "max" : [0.9980220794677734, 0.9992980360984802, 0.9836678504943848], "min" : [-0.9986718893051147, -0.9990449547767639, -0.9972719550132751], "name" : "NORMAL"}, {"bufferView" : 8, "byteOffset" : 24, "componentType" : 5126, "count" : 8372, "type" : "VEC2", "max" : [3.4450700283050537, 4.997509956359863], "min" : [-3.509500026702881, 0.2504729926586151], "name" : "TEXCOORD_0"}], "asset" : {"generator" : "Aspose.3D 23.2", "version" : "2.0"}, "buffers" : [{"uri" : "data:application/octet-stream;base64,", "byteLength" : 2703964}], "bufferViews" : [{"buffer" : 0, "byteOffset" : 0, "byteLength" : 159064, "target" : 34963}, {"buffer" : 0, "byteOffset" : 159068, "byteLength" : 1152, "byteStride" : 32, "target" : 34962}, {"buffer" : 0, "byteOffset" : 160224, "byteLength" : 391200, "byteStride" : 32, "target" : 34962}, {"buffer" : 0, "byteOffset" : 551428, "byteLength" : 391200, "byteStride" : 32, "target" : 34962}, {"buffer" : 0, "byteOffset" : 942632, "byteLength" : 391200, "byteStride" : 32, "target" : 34962}, {"buffer" : 0, "byteOffset" : 1333836, "byteLength" : 391200, "byteStride" : 32, "target" : 34962}, {"buffer" : 0, "byteOffset" : 1725040, "byteLength" : 391200, "byteStride" : 32, "target" : 34962}, {"buffer" : 0, "byteOffset" : 2116244, "byteLength" : 312000, "byteStride" : 32, "target" : 34962}, {"buffer" : 0, "byteOffset" : 2428248, "byteLength" : 275712, "byteStride" : 32, "target" : 34962}], "images" : [{"uri" : "data:image/png;base64,"}, {"uri" : "data:image/jpeg;base64,"}], "materials" : [{"name" : "formica_cinza", "pbrMetallicRoughness" : {"baseColorFactor" : [0.4, 0.4, 0.4, 1], "metallicFactor" : 0, "roughnessFactor" : 0.6}, "emissiveFactor" : [0, 0, 0], "alphaMode" : "OPAQUE", "doubleSided" : true}, {"name" : "material", "pbrMetallicRoughness" : {"baseColorFactor" : [1, 1, 1, 1], "baseColorTexture" : {"index" : 0, "texCoord" : 0}, "metallicFactor" : 0, "roughnessFactor" : 0.6}, "emissiveFactor" : [0, 0, 0], "alphaMode" : "OPAQUE", "doubleSided" : true}, {"name" : "material", "pbrMetallicRoughness" : {"baseColorFactor" : [1, 1, 1, 1], "baseColorTexture" : {"index" : 0, "texCoord" : 0}, "metallicFactor" : 0, "roughnessFactor" : 0.6}, "emissiveFactor" : [0, 0, 0], "alphaMode" : "OPAQUE", "doubleSided" : true}, {"name" : "material", "pbrMetallicRoughness" : {"baseColorFactor" : [1, 1, 1, 1], "baseColorTexture" : {"index" : 0, "texCoord" : 0}, "metallicFactor" : 0, "roughnessFactor" : 0.6}, "emissiveFactor" : [0, 0, 0], "alphaMode" : "OPAQUE", "doubleSided" : true}, {"name" : "material", "pbrMetallicRoughness" : {"baseColorFactor" : [1, 1, 1, 1], "baseColorTexture" : {"index" : 0, "texCoord" : 0}, "metallicFactor" : 0, "roughnessFactor" : 0.6}, "emissiveFactor" : [0, 0, 0], "alphaMode" : "OPAQUE", "doubleSided" : true}, {"name" : "material", "pbrMetallicRoughness" : {"baseColorFactor" : [1, 1, 1, 1], "baseColorTexture" : {"index" : 0, "texCoord" : 0}, "metallicFactor" : 0, "roughnessFactor" : 0.6}, "emissiveFactor" : [0, 0, 0], "alphaMode" : "OPAQUE", "doubleSided" : true}, {"name" : "material", "pbrMetallicRoughness" : {"baseColorFactor" : [1, 1, 1, 1], "baseColorTexture" : {"index" : 0, "texCoord" : 0}, "metallicFactor" : 0, "roughnessFactor" : 0.6}, "emissiveFactor" : [0, 0, 0], "alphaMode" : "OPAQUE", "doubleSided" : true}, {"name" : "Vegetation_Bark_Maple_1", "pbrMetallicRoughness" : {"baseColorFactor" : [1, 1, 1, 1], "baseColorTexture" : {"index" : 1, "texCoord" : 0}, "metallicFactor" : 0, "roughnessFactor" : 0.6}, "emissiveFactor" : [0, 0, 0], "alphaMode" : "OPAQUE", "doubleSided" : true}], "meshes" : [{"primitives" : [{"attributes" : {"POSITION" : 1, "NORMAL" : 2, "TEXCOORD_0" : 3}, "indices" : 0, "material" : 0, "mode" : 4}]}, {"primitives" : [{"attributes" : {"POSITION" : 5, "NORMAL" : 6, "TEXCOORD_0" : 7}, "indices" : 4, "material" : 1, "mode" : 4}]}, {"primitives" : [{"attributes" : {"POSITION" : 9, "NORMAL" : 10, "TEXCOORD_0" : 11}, "indices" : 8, "material" : 2, "mode" : 4}]}, {"primitives" : [{"attributes" : {"POSITION" : 13, "NORMAL" : 14, "TEXCOORD_0" : 15}, "indices" : 12, "material" : 3, "mode" : 4}]}, {"primitives" : [{"attributes" : {"POSITION" : 17, "NORMAL" : 18, "TEXCOORD_0" : 19}, "indices" : 16, "material" : 4, "mode" : 4}]}, {"primitives" : [{"attributes" : {"POSITION" : 21, "NORMAL" : 22, "TEXCOORD_0" : 23}, "indices" : 20, "material" : 5, "mode" : 4}]}, {"primitives" : [{"attributes" : {"POSITION" : 25, "NORMAL" : 26, "TEXCOORD_0" : 27}, "indices" : 24, "material" : 6, "mode" : 4}]}, {"primitives" : [{"attributes" : {"POSITION" : 29, "NORMAL" : 30, "TEXCOORD_0" : 31}, "indices" : 28, "material" : 7, "mode" : 4}]}], "nodes" : [{"mesh" : 0, "name" : "Object_3"}, {"mesh" : 1, "name" : "Object_4"}, {"mesh" : 2, "name" : "Object_5"}, {"mesh" : 3, "name" : "Object_6"}, {"mesh" : 4, "name" : "Object_7"}, {"mesh" : 5, "name" : "Object_8"}, {"mesh" : 6, "name" : "Object_9"}, {"mesh" : 7, "name" : "Object_10"}, {"children" : [0, 1, 2, 3, 4, 5, 6, 7], "name" : "Object_2"}, {"children" : [8], "matrix" : [1, 0, 0, 0, 0, 1, 0, 0, 0, 0, 1, 0, 1.646860002969125E-13, 5.053380131882224E-13, -1.3535799949426428E-14, 1], "name" : "JASMIM+MANGA.obj.cleaner.gles"}, {"children" : [9], "matrix" : [1, 0, 0, 0, 0, 2.220446049250313E-16, -1, 0, 0, 1, 2.220446049250313E-16, 0, 0, 0, 0, 1], "name" : "Sketchfab_model"}], "samplers" : [{"magFilter" : 9729, "minFilter" : 9987, "wrapS" : 10497, "wrapT" : 10497}, {"magFilter" : 9729, "minFilter" : 9987, "wrapS" : 10497, "wrapT" : 10497}], "scene" : 0, "scenes" : [{"nodes" : [10]}], "textures" : [{"sampler" : 0, "source" : 0, "name" : ""}, {"sampler" : 1, "source" : 1, "name" : ""}]}