<svg xmlns="http://www.w3.org/2000/svg" width="334.284" height="67.378" viewBox="0 0 334.284 67.378">
  <g id="Group_14109" data-name="Group 14109" transform="translate(6450.636 4655.412)">
    <g id="Group_14108" data-name="Group 14108" transform="translate(-6450.636 -4655.412)">
      <path id="Path_12355" data-name="Path 12355" d="M124.651,109.874v2.7H41.306v-5.492c5.217-.57,10.406-1.15,15.6-1.7,8.012-.852,16.011-1.949,24.046-2.411,3.711-.214,7.515.7,11.241,1.319,10.785,1.794,21.552,3.7,32.461,5.585" transform="translate(-40.821 -46.917)" fill="#002144"/>
      <path id="Path_12356" data-name="Path 12356" d="M124.181,28.13c-.787-.4-1.586-.783-2.361-1.207C109.673,20.262,97.506,13.636,85.408,6.888a6.5,6.5,0,0,0-5.834-.561C67.684,10.4,55.738,14.313,43.809,18.274c-.831.276-1.677.506-2.853.859a16.442,16.442,0,0,1,.066-3.718,3.5,3.5,0,0,1,1.593-2.278Q61.848,6.493,81.173.114A3.863,3.863,0,0,1,83.9.485C96.876,7.512,109.78,14.678,122.8,21.63c3.1,1.656,1.015,4.162,1.924,6.11l-.541.39" transform="translate(-40.626 0)" fill="#002144"/>
      <path id="Path_12357" data-name="Path 12357" d="M41.292,34.349c-.942-4.489-.846-4.639,3.149-5.784,12.077-3.459,24.142-6.96,36.239-10.345a5.554,5.554,0,0,1,3.556.232c12.859,6.026,25.629,12.243,38.518,18.2,2.933,1.356,1.186,3.513,2.164,5.915-1.517-.658-2.377-1-3.213-1.4C109.528,35.4,97.338,29.651,85.2,23.8a6.887,6.887,0,0,0-5.378-.473c-12.044,3.57-24.129,7-36.2,10.471-.764.22-1.548.366-2.324.546" transform="translate(-40.59 -8.219)" fill="#002144"/>
      <path id="Path_12358" data-name="Path 12358" d="M41.312,49.436c-.736-3.92-.731-3.9,2.92-4.826C56.154,41.6,68.06,38.525,80.007,35.617a8.049,8.049,0,0,1,4.608.352C96.955,40.921,109.2,46.1,121.563,51c2.6,1.03,3.724,2.261,2.714,5.2-1.27-.471-2.6-.924-3.9-1.453-11.812-4.808-23.6-9.682-35.454-14.382a8.692,8.692,0,0,0-4.917-.286c-12.4,2.952-24.766,6.069-37.144,9.125a15.541,15.541,0,0,1-1.552.226" transform="translate(-40.648 -16.148)" fill="#002144"/>
      <path id="Path_12359" data-name="Path 12359" d="M41.283,64.54c-.863-2.711,0-3.67,2.6-4.209C55.929,57.84,67.91,55.044,79.945,52.5a9.66,9.66,0,0,1,4.921.362c12.389,4.3,24.712,8.792,37.1,13.086,2.214.767,3.188,1.784,2.343,4.386-.885-.272-1.795-.512-2.678-.827-11.928-4.248-23.865-8.471-35.766-12.794a11.082,11.082,0,0,0-6.56-.4c-11.9,2.711-23.84,5.285-35.768,7.9-.7.152-1.414.208-2.257.328" transform="translate(-40.662 -23.853)" fill="#002144"/>
      <path id="Path_12360" data-name="Path 12360" d="M256.844,115.275H198.862v-3.061a111.2,111.2,0,0,1,58.113,2.073q-.066.494-.132.988" transform="translate(-112.631 -49.824)" fill="#002144"/>
      <path id="Path_12361" data-name="Path 12361" d="M256.625,56.17c-3.57-1.942-7.05-3.825-10.521-5.726-5.477-3-10.981-5.951-16.4-9.052a5.023,5.023,0,0,0-4.565-.368c-8.115,2.8-16.269,5.49-24.412,8.213-.593.2-1.2.345-1.933.552-.793-2.513-.378-3.914,2.428-4.778,8.118-2.5,16.113-5.4,24.215-7.958a6.088,6.088,0,0,1,4.245.382c8.31,4.414,16.474,9.1,24.793,13.5,2.3,1.216,2.911,2.661,2.149,5.234" transform="translate(-112.438 -16.788)" fill="#002144"/>
      <path id="Path_12362" data-name="Path 12362" d="M40.414,78.687c.685-.586,1.3-1.568,2.065-1.7q19.378-3.331,38.793-6.445a6.663,6.663,0,0,1,2.659.249q19.138,5.02,38.263,10.09c1.537.4,2.8.909,1.785,3.24-3.2-.832-6.481-1.658-9.745-2.534-9.772-2.624-19.48-5.528-29.341-7.756-3.261-.737-6.952-.028-10.375.494-10.544,1.609-21.052,3.452-31.578,5.184a11.554,11.554,0,0,1-1.853.013l-.672-.834" transform="translate(-40.414 -32.128)" fill="#002144"/>
      <path id="Path_12363" data-name="Path 12363" d="M198.812,60.3c-.795-2.343-.15-3.4,2.143-4.024,8.284-2.242,16.5-4.747,24.776-7.011a5.974,5.974,0,0,1,3.8.312c8.517,3.984,16.942,8.166,25.456,12.157,1.875.879,2.358,1.99,1.648,4.069-.926-.408-1.813-.773-2.678-1.184-8.007-3.8-15.975-7.677-24.046-11.329a7.783,7.783,0,0,0-4.832-.341c-7.946,2.1-15.83,4.446-23.737,6.7-.838.239-1.688.435-2.527.649" transform="translate(-112.46 -22.375)" fill="#002144"/>
      <path id="Path_12364" data-name="Path 12364" d="M256.576,75.663c-4.805-1.956-9.555-3.881-14.3-5.824-4.095-1.678-8.138-3.494-12.293-5.005a8.609,8.609,0,0,0-4.641-.33c-8.857,2.066-17.67,4.321-26.525,6.52-.652-1.922-.319-2.881,1.781-3.371,8.439-1.97,16.826-4.167,25.256-6.179a5.936,5.936,0,0,1,3.367.2c8.642,3.441,17.225,7.03,25.864,10.478,1.693.675,2.277,1.552,1.489,3.506" transform="translate(-112.475 -27.949)" fill="#002144"/>
      <path id="Path_12365" data-name="Path 12365" d="M124.249,98.423c-4.394-.852-8.793-1.68-13.182-2.559-9.128-1.829-18.2-3.991-27.4-5.377-3.721-.561-7.7.462-11.551.914C62.5,92.53,52.9,93.749,43.288,94.913a17.692,17.692,0,0,1-2.109.011l-.4-.752c.627-.417,1.219-1.125,1.887-1.207,11.138-1.353,22.335-2.307,33.415-4.02,8.778-1.357,16.814,1.717,25.141,3.027,7.048,1.109,14.018,2.714,21.008,4.174a10.627,10.627,0,0,1,2.471,1.248l-.457,1.028" transform="translate(-40.583 -40.385)" fill="#002144"/>
      <path id="Path_12366" data-name="Path 12366" d="M256.532,85.462c-8.745-3.161-17.465-6.391-26.256-9.418a10.457,10.457,0,0,0-5.216-.3c-8.671,1.733-17.3,3.669-26.074,5.561-.729-1.616-.556-2.4,1.376-2.8,8.759-1.786,17.486-3.732,26.236-5.565a4.564,4.564,0,0,1,2.328.2c8.776,3.076,17.548,6.168,26.278,9.373.857.315,1.43,1.4,2.135,2.13l-.808.815" transform="translate(-112.506 -33.214)" fill="#002144"/>
      <path id="Path_12367" data-name="Path 12367" d="M256.419,95.172c-8.893-2.373-17.775-4.787-26.688-7.08a11.571,11.571,0,0,0-4.526-.244c-8.212,1.267-16.4,2.68-24.6,4.017a12.906,12.906,0,0,1-2.042.014l-.287-.734a7.787,7.787,0,0,1,2.138-1.133q13.092-2.2,26.211-4.255a5.287,5.287,0,0,1,2.106.2q13.085,3.474,26.148,7.032a9.138,9.138,0,0,1,2.152,1.31l-.61.871" transform="translate(-112.363 -39.068)" fill="#002144"/>
      <path id="Path_12368" data-name="Path 12368" d="M198.732,101.881a6.637,6.637,0,0,1,1.573-.624c9.073-1.112,18.129-2.519,27.238-3.115,3.756-.246,7.632,1.242,11.444,1.988,5.057.989,10.106,2.017,15.154,3.044.935.19,1.855.453,2.783.682l-.036.733a12.4,12.4,0,0,1-2.329-.02c-8.163-1.59-16.266-3.626-24.5-4.686-4.55-.587-9.32.321-13.97.773-5.74.558-11.459,1.344-17.187,2.031l-.175-.806" transform="translate(-112.572 -44.718)" fill="#002144"/>
    </g>
    <text id="UNICORN" transform="translate(-6288.352 -4614.149)" fill="#002144" font-size="31" font-family="BookAntiqua, Book Antiqua"><tspan x="0" y="0" letter-spacing="0.1em">U</tspan><tspan y="0" letter-spacing="0.099em">N</tspan><tspan y="0" letter-spacing="0.1em">IC</tspan><tspan y="0" letter-spacing="0.099em">O</tspan><tspan y="0" letter-spacing="0.1em">R</tspan><tspan y="0">N</tspan></text>
    <text id="CONSTRUCTIONS" transform="translate(-6288.352 -4591.033)" fill="#002144" font-size="13" font-family="ArialMT, Arial"><tspan x="0" y="0" letter-spacing="0.259em">C</tspan><tspan y="0" letter-spacing="0.26em">O</tspan><tspan y="0" letter-spacing="0.259em">N</tspan><tspan y="0" letter-spacing="0.26em">ST</tspan><tspan y="0" letter-spacing="0.259em">RUC</tspan><tspan y="0" letter-spacing="0.26em">TIO</tspan><tspan y="0" letter-spacing="0.259em">N</tspan><tspan y="0">S</tspan></text>
  </g>
</svg>
